Coordinates
version=1
nRows=65
nColumns=12
inDegrees=yes

Units are S.I. units (second, meters, Newtons, ...)
Angles are in degrees

endheader
time	SC_y	SC_z	SC_x	AC_y	AC_z	AC_x	GH_y	GH_z	GH_yy	EL_x	PS_y
       0.0              -27.35          15.86          18.97          48.51         -9.712           6.21        0.05211          71.04         -99.19          46.13          7.011
    0.0299              -27.35          15.86          18.98          48.51         -9.711          6.208        0.05241          71.03          -99.2          46.14          7.026
    0.0598              -27.35          15.86          18.98          48.51         -9.711          6.205        0.05273          71.02         -99.21          46.15          7.041
   0.08971              -27.35          15.87          18.99          48.51          -9.71          6.203        0.05306          71.02         -99.22          46.16          7.057
    0.1196              -27.35          15.87           19.0          48.52         -9.709            6.2        0.05342          71.01         -99.23          46.17          7.074
    0.1495              -27.36          15.88           19.0          48.52         -9.708          6.197        0.05381           71.0         -99.24          46.19          7.092
    0.1794              -27.36          15.88          19.01          48.52         -9.708          6.194        0.05422          70.99         -99.25           46.2          7.112
    0.2093              -27.36          15.89          19.02          48.53         -9.707          6.191        0.05466          70.97         -99.27          46.21          7.133
    0.2392              -27.36          15.89          19.03          48.53         -9.706          6.187        0.05513          70.96         -99.28          46.23          7.155
    0.2691              -27.36           15.9          19.03          48.53         -9.705          6.184        0.05563          70.95         -99.29          46.25          7.179
     0.299              -27.37           15.9          19.04          48.54         -9.704           6.18        0.05617          70.93         -99.31          46.26          7.205
    0.3289              -27.37          15.91          19.05          48.54         -9.702          6.175        0.05675          70.92         -99.33          46.28          7.233
    0.3588              -27.37          15.92          19.06          48.55         -9.701          6.171        0.05738           70.9         -99.34          46.31          7.262
    0.3887              -27.37          15.92          19.08          48.55           -9.7          6.166        0.05806          70.88         -99.36          46.33          7.295
    0.4186              -27.38          15.93          19.09          48.56         -9.698           6.16        0.05879          70.86         -99.38          46.35           7.33
    0.4485              -27.38          15.94           19.1          48.57         -9.696          6.154        0.05959          70.84         -99.41          46.38          7.368
    0.4784              -27.39          15.95          19.12          48.57         -9.695          6.148        0.06045          70.82         -99.43          46.41          7.409
    0.5083              -27.39          15.96          19.13          48.58         -9.693          6.141         0.0614          70.79         -99.46          46.44          7.454
    0.5382              -27.39          15.97          19.15          48.59         -9.691          6.133        0.06243          70.77         -99.49          46.48          7.503
    0.5681               -27.4          15.99          19.17           48.6         -9.688          6.125        0.06355          70.74         -99.52          46.51          7.556
     0.598               -27.4           16.0          19.19          48.61         -9.686          6.116        0.06479           70.7         -99.56          46.56          7.615
    0.6279              -27.41          16.02          19.21          48.62         -9.683          6.106        0.06615          70.67         -99.59           46.6           7.68
    0.6578              -27.42          16.03          19.24          48.63          -9.68          6.095        0.06765          70.63         -99.64          46.65          7.752
    0.6877              -27.42          16.05          19.27          48.65         -9.676          6.082        0.06932          70.58         -99.68          46.71          7.831
    0.7176              -27.43          16.07           19.3          48.66         -9.672          6.069        0.07117          70.53         -99.74          46.77          7.919
    0.7475              -27.44           16.1          19.34          48.68         -9.668          6.053        0.07324          70.48          -99.8          46.84          8.017
    0.7774              -27.45          16.12          19.38           48.7         -9.663          6.036        0.07555          70.42         -99.86          46.92          8.128
    0.8074              -27.46          16.15          19.42          48.72         -9.658          6.017        0.07816          70.35         -99.94          47.01          8.252
    0.8373              -27.48          16.19          19.47          48.74         -9.652          5.995         0.0811          70.27         -100.0           47.1          8.392
    0.8672              -27.49          16.22          19.53          48.77         -9.645          5.971        0.08444          70.18         -100.1          47.22          8.551
    0.8971              -27.51          16.27          19.59           48.8         -9.637          5.942        0.08825          70.08         -100.2          47.35          8.732
     0.927              -27.53          16.32          19.67          48.84         -9.628           5.91        0.09263          69.96         -100.4          47.49          8.941
    0.9569              -27.55          16.37          19.75          48.88         -9.617          5.873        0.09768          69.82         -100.5          47.66          9.181
    0.9868              -27.58          16.44          19.85          48.92         -9.605          5.829         0.1035          69.67         -100.7          47.86          9.461
     1.017              -27.61          16.52          19.97          48.98         -9.591          5.778         0.1104          69.48         -100.9          48.09          9.788
     1.047              -27.65          16.61          20.11          49.05         -9.574          5.719         0.1185          69.27         -101.1          48.37          10.17
     1.076              -27.69          16.72          20.27          49.12         -9.554          5.647         0.1281          69.01         -101.4          48.69          10.63
     1.106              -27.74          16.85          20.47          49.22          -9.53          5.562         0.1397           68.7         -101.7          49.08          11.18
     1.136               -27.8          17.01          20.71          49.33         -9.501          5.459         0.1536          68.33         -102.1          49.55          11.85
     1.166              -27.88          17.21           21.0          49.47         -9.465          5.333         0.1707          67.87         -102.6          50.12          12.66
     1.196              -27.97          17.44          21.36          49.64         -9.421          5.177         0.1917          67.31         -103.2          50.83          13.66
     1.226              -28.09          17.74          21.81          49.85         -9.367          4.983         0.2179          66.61         -103.9          51.72          14.91
     1.256              -28.24          18.12          22.37          50.12         -9.298          4.739          0.251          65.73         -104.9          52.83          16.48
     1.286              -28.43           18.6          23.09          50.47          -9.21          4.428          0.293           64.6         -106.1          54.25          18.48
     1.316              -28.67          19.21          24.01           50.9         -9.098           4.03         0.3468          63.17         -107.6          56.06          21.04
     1.346              -28.98          19.99          25.19          51.46         -8.955           3.52         0.4158          61.32         -109.6          58.39          24.33
     1.375              -29.38           21.0           26.7          52.18         -8.771          2.868         0.5039          58.97         -112.1          61.36          28.53
     1.405              -29.88          22.26          28.59          53.08         -8.541          2.048         0.6148          56.01         -115.3          65.09          33.81
     1.435              -30.48          23.79           30.9          54.18         -8.259          1.049         0.7498           52.4         -119.1          69.65          40.24
     1.465              -31.19          25.57          33.58          55.45         -7.933         -0.109         0.9064          48.21         -123.6          74.92          47.69
     1.495              -31.95           27.5          36.48          56.83          -7.58         -1.363          1.076          43.68         -128.4          80.64          55.77
     1.525              -32.71          29.43          39.38          58.21         -7.227         -2.617          1.245          39.15         -133.3          86.35          63.84
     1.555              -33.41          31.21          42.05          59.48         -6.901         -3.775          1.402          34.97         -137.8          91.63          71.29
     1.585              -34.02          32.75          44.36          60.58          -6.62         -4.774          1.537          31.36         -141.6          96.18          77.73
     1.615              -34.52          34.01          46.26          61.48          -6.39         -5.594          1.648           28.4         -144.8          99.92           83.0
     1.645              -34.91          35.01          47.76           62.2         -6.206         -6.246          1.736          26.05         -147.3          102.9           87.2
     1.675              -35.22           35.8          48.94          62.76         -6.062         -6.756          1.805           24.2         -149.3          105.2          90.49
     1.704              -35.47          36.41          49.86           63.2          -5.95         -7.154          1.859          22.76         -150.8          107.0          93.05
     1.734              -35.65          36.89          50.58          63.54         -5.863         -7.464          1.901          21.64         -152.0          108.4          95.05
     1.764               -35.8          37.26          51.14          63.81         -5.794         -7.709          1.934          20.76         -153.0          109.6          96.62
     1.794              -35.92          37.56          51.59          64.02         -5.739         -7.903           1.96          20.06         -153.7          110.4          97.87
     1.824              -36.01           37.8          51.95           64.2         -5.696         -8.059          1.981           19.5         -154.3          111.2          98.87
     1.854              -36.09           38.0          52.24          64.33          -5.66         -8.185          1.998          19.04         -154.8          111.7          99.69
     1.884              -36.15          38.15          52.48          64.45         -5.631         -8.288          2.012          18.67         -155.2          112.2          100.4
     1.914              -36.21          38.29          52.68          64.54         -5.607         -8.373          2.024          18.36         -155.5          112.6          100.9
